<?xml version="1.0" encoding="UTF-8" standalone="no"?>
<svg
    version="1.1"
    id="Layer_1"
    x="0px"
    y="0px"
    viewBox="0 0 954.76936 378.7"
    xml:space="preserve"
    sodipodi:docname="5fb188ba94940c3cb176ea38c5754a0b.svg"
    width="954.76935"
    height="378.70001"
    xmlns:inkscape="http://www.inkscape.org/namespaces/inkscape"
    xmlns:sodipodi="http://sodipodi.sourceforge.net/DTD/sodipodi-0.dtd"
    xmlns="http://www.w3.org/2000/svg"
    xmlns:svg="http://www.w3.org/2000/svg"><defs
   id="defs27" /><sodipodi:namedview
    id="namedview25"
    pagecolor="#ffffff"
    bordercolor="#666666"
    borderopacity="1.0"
    inkscape:pageshadow="2"
    inkscape:pageopacity="0.0"
    inkscape:pagecheckerboard="0" />
    <style
        type="text/css"
        id="style2">
	.st0{fill:#FFF;}
	.st1{fill:#FFF;}
</style>
    <g
        id="Layer_1_00000134956141292187558740000003157579151776050861_"
        transform="translate(0.06307544,-0.1)">
	<g
        id="g20">
		<g
            id="g6">
			<path
                class="st0"
                d="m 951.6,228.6 0.1,-0.2 -1.7,2.6 c -2.3,3.5 -6,5.5 -10,5.5 H 472 l -4.4,24.8 h 461.9 c 5.6,0 11,-1.6 15.6,-4.6 5.4,-3.5 8.8,-9.4 9.6,-15.8 v -1.2 c 0.1,-3.9 -1,-7.8 -3.1,-11.1 z"
                id="path4" />
		</g>
        <g
            id="g18">
			<path
                class="st1"
                d="m 768.5,64.4 c 11.8,0 19.3,-9.1 19.3,-18.5 0,-9.6 -6.4,-16.9 -16.6,-16.9 -10.2,0 -18.8,8.3 -18.8,19.3 0,9.4 6.4,16.1 16.1,16.1 z"
                id="path8" />
            <path
                class="st1"
                d="m 919.9,64.4 c 11.8,0 19.3,-9.1 19.3,-18.5 0,-9.6 -6.4,-16.9 -16.6,-16.9 -10.2,0 -18.8,8.3 -18.8,19.3 0,9.4 6.5,16.1 16.1,16.1 z"
                id="path10" />
            <g
                id="g16">
				<path
                    class="st0"
                    d="m 286,176.9 c -4.6,8 -14.9,21.1 -26.9,21.1 -9.1,0 -14.7,-6.7 -12.1,-22.2 L 269,49.5 c 3.5,-20.1 0.3,-29.2 -21.4,-29.2 -38.3,0 -52.6,15.8 -64.9,50.1 l -20.1,56.4 -0.3,1.1 c -11.6,32.8 -26.3,74.4 -39,110.9 -48.8,5.5 -103.7,21.2 -118.2,64 -10.1,29.8 -3.5,48.1 3.8,58.3 9.4,13 23.4,17.7 32.6,17.7 34.2,0 58.6,-21.8 72.7,-64.9 2.9,-8.9 9.5,-28 17.8,-51.8 23.8,-1.6 48.1,-1.3 68.8,-1 7.7,0.1 15,0.2 21.7,0.2 h 192.1 l 4.3,-24.8 H 222.5 c -6.5,0 -13.7,-0.1 -21.3,-0.2 -18.3,-0.3 -39.2,-0.6 -60.3,0.4 10,-28.7 21.3,-60.6 31.2,-88.8 h 43.8 l -0.5,2.9 c -2.4,14.2 -3.8,24.9 -3.8,37.3 0,20.4 13.1,33.2 32.2,33.2 15.1,0 29,-8.8 38.1,-19.3 0.2,-1.9 0.5,-3.9 0.9,-6 z M 103.1,297.2 c -13.8,42.3 -33.9,51.1 -49.5,51.1 -2.9,0 -9.9,-2.3 -14.2,-7.3 -4.8,-5.6 -6.6,-14.7 -1.3,-30.3 9.3,-27.6 40.1,-40.2 76.1,-45.7 -6.5,18.7 -8.6,24.6 -11.1,32.2 z m 130.3,-249 -15,85 c -19.4,-0.3 -30.6,1.6 -40.7,0.1 -0.1,-0.1 -0.1,-0.2 -0.2,-0.4 l 21.7,-61.3 c 6.4,-18.2 17.6,-36.5 35.6,-36.5 -0.1,-0.1 -0.1,5 -1.4,13.1 z"
                    id="path12" />
                <path
                    class="st1"
                    d="m 936.5,191.7 c 0,0 -2.4,7.5 -10.2,7.5 -7,0 -11.3,-5.6 -8,-24.9 l 10.2,-59.2 c 3.2,-18.8 0.8,-26.5 -19.8,-26.5 -9.9,0 -13.9,2.4 -13.9,2.4 0,0 2.7,6.2 -0.3,23 l -8.6,49.6 c -1.1,6.2 -1.7,11.7 -2,16.7 -6.3,9.8 -16.3,18.9 -29.6,18.9 -12.6,0 -18,-8.9 -15.3,-23.6 l 12.9,-73.7 h 21.7 c 5.9,0 9.1,-3.2 9.1,-7.8 0,-3.5 -1.9,-5.6 -1.9,-5.6 h -26.5 l 2.4,-13.4 C 860.2,56.3 857.5,48.6 836.9,48.6 827,48.6 823,51 823,51 c 0,0 3,6.2 -0.3,23 L 820,88.5 h -12.6 c -5.9,0 -9.1,3.2 -9.1,7.8 0,3.5 1.9,5.6 1.9,5.6 h 17.4 l -9.9,56.6 c -1.4,8.2 -2.2,14.4 -2.5,19.6 -7.1,13.1 -18.3,21.1 -26.9,21.1 -9.7,0 -14.2,-7.5 -11.5,-23.6 L 777,115 c 3.2,-18.8 0.8,-26.5 -19.8,-26.5 -9.9,0 -13.9,2.4 -13.9,2.4 0,0 2.7,5.9 -0.3,23 l -8.6,49.6 c -1.1,6.2 -1.7,11.8 -2,16.5 -6.8,11.6 -15.8,19.1 -25.8,19.1 -11.3,0 -13.4,-10.5 -11,-23.6 l 6.4,-37.8 c 1.3,-8 2.4,-15.8 2.4,-21.7 0,-16.6 -10.7,-27.6 -27.6,-27.6 -21.7,0 -42.1,21.5 -52.5,38.9 l 2.1,-12.3 c 3.2,-18.8 0.8,-26.5 -19.8,-26.5 -9.9,0 -13.9,2.4 -13.9,2.4 0,0 2.7,6.2 -0.3,23 l -11,63.4 c -7.1,13.6 -18.5,21.9 -27.4,21.9 -9.6,0 -14.2,-7.5 -11.5,-23.6 L 553,115 c 3.2,-18.8 0.8,-26.5 -19.8,-26.5 H 488.7 L 495.1,51 c 4.8,-28.7 15.8,-37.5 27.3,-37.5 9.1,0 13.4,6.2 13.4,18 0,15.5 -11,26.5 -11,26.5 0,0 3.5,6.4 13.1,6.4 13.9,0 23.6,-12.1 23.6,-28.4 0,-22 -16.1,-35.9 -43.4,-35.9 -30.6,0 -51.5,16.9 -59.2,62.2 l -4.6,26.3 H 442 c -5.9,0 -9.1,3.2 -9.1,7.8 0,3.5 1.9,5.6 1.9,5.6 H 452 l -12.9,74.6 c -6.9,13.6 -16.7,22.7 -27.8,22.7 -11.3,0 -13.4,-10.5 -11,-23.6 l 6.4,-37.8 c 1.3,-8 2.4,-15.8 2.4,-21.7 0,-16.6 -10.7,-27.6 -27.6,-27.6 -21.7,0 -42.1,21.5 -52.5,38.9 l 2,-12.5 c 3.2,-18.8 0.8,-26.5 -19.8,-26.5 -9.9,0 -13.9,2.4 -13.9,2.4 0,0 2.7,6.2 -0.3,23 l -11,62.9 -3.3,19.1 c -0.4,2.2 -0.7,4.1 -0.9,6 -1.6,14.4 2.4,20.5 20.7,20.5 9.9,0 13.9,-2.4 13.9,-2.4 0,0 -2.7,-6.2 0.3,-23.1 8.3,-45 33.8,-85 50.7,-85 5.9,0 8.6,4 6.4,16.9 l -5.1,29.5 c -1.6,8.9 -4,23.6 -4,30.6 0,20.1 12.3,33.5 32.4,33.5 15.2,0 28.7,-9.7 37.3,-20.4 l -11.6,66.8 c -3.8,21.4 -10.5,28.1 -20.4,28.1 -5.9,0 -9.4,-3.5 -9.4,-3.5 0,0 -2.1,1.9 -2.1,7.5 0,8.6 7.8,15.3 21.7,15.3 22.8,0 37.8,-12.1 44,-47.2 l 29.5,-167.3 h 34 c -0.3,3.2 -0.5,7.2 -1.3,12.1 l -8.6,49.6 c -1.9,10.7 -2.4,20.1 -2.4,25.5 0,21.4 12.9,33.5 31.4,33.5 16,0 29.4,-9.6 38,-20.3 -1.5,14.2 2.5,20.3 20.7,20.3 9.9,0 13.9,-2.4 13.9,-2.4 0,0 -2.7,-6.2 0.3,-23.1 8.3,-45 33.8,-85 50.7,-85 5.9,0 8.6,4 6.4,16.9 l -5.1,29.5 c -1.6,8.9 -4,23.6 -4,30.6 0,20.1 12.3,33.5 32.4,33.5 17.2,0 32,-12.3 40.4,-24.5 3.2,15.7 14.7,24.5 30.4,24.5 19,0 34.4,-13.6 42.4,-26.5 3.7,16.3 17.4,26.5 34.3,26.5 18.4,0 34.7,-12.1 44,-25 2.5,16.3 14.2,25 26.5,25 17.4,0 30,-12.3 31.1,-23.1 0.6,-4.6 -1.3,-7.6 -5.1,-7.6 z"
                    id="path14" />
			</g>
		</g>
	</g>
</g>
    <g
        id="Layer_2_00000142159864480463900840000015292976175261924753_"
        transform="translate(0.06307544,-0.1)">
</g>
</svg>
